<?xml version="1.0" standalone="no"?>
<!DOCTYPE svg PUBLIC "-//W3C//DTD SVG 20010904//EN"
 "http://www.w3.org/TR/2001/REC-SVG-20010904/DTD/svg10.dtd">
<svg version="1.0" xmlns="http://www.w3.org/2000/svg"
 width="500.000000pt" height="500.000000pt" viewBox="0 0 500.000000 500.000000"
 preserveAspectRatio="xMidYMid meet">

<g transform="translate(0.000000,500.000000) scale(0.100000,-0.100000)"
fill="#000000" stroke="none">
<path d="M1865 4701 c-156 -38 -269 -227 -282 -471 -17 -316 154 -590 368
-590 100 0 177 51 251 164 62 97 88 198 88 349 0 173 -31 283 -112 399 -83
118 -204 175 -313 149z"/>
<path d="M2983 4696 c-150 -49 -259 -204 -299 -426 -26 -143 -12 -264 47 -406
79 -189 247 -273 397 -198 101 50 197 183 238 330 23 83 28 281 9 364 -20 84
-73 194 -120 248 -69 79 -184 117 -272 88z"/>
<path d="M1060 3976 c-51 -16 -81 -35 -113 -70 -121 -128 -131 -397 -24 -601
70 -133 216 -236 316 -222 112 15 197 100 242 242 22 68 16 239 -10 319 -58
179 -157 293 -286 331 -61 17 -76 17 -125 1z"/>
<path d="M3805 3977 c-94 -31 -156 -79 -214 -166 -150 -223 -131 -573 36 -682
81 -54 133 -60 220 -28 42 16 73 38 118 84 73 74 74 76 108 147 41 85 58 162
58 268 0 107 -13 172 -48 243 -56 112 -173 168 -278 134z"/>
<path d="M2280 3501 c-163 -44 -249 -102 -425 -287 -77 -81 -209 -208 -295
-283 -168 -147 -189 -168 -254 -251 -83 -106 -115 -195 -123 -337 -7 -119 6
-200 47 -289 104 -231 286 -364 541 -395 102 -13 158 -8 464 44 77 14 196 30
265 37 351 34 442 56 425 102 -12 29 -136 83 -250 107 -27 6 -71 15 -97 21
-26 5 -59 11 -75 11 -18 1 -11 5 22 11 65 11 289 1 385 -19 142 -28 230 -91
230 -164 0 -44 -63 -103 -130 -122 -52 -14 -213 -43 -380 -67 -166 -24 -298
-46 -365 -60 -374 -81 -563 -184 -656 -360 -20 -38 -24 -60 -24 -135 0 -83 3
-96 36 -165 52 -108 163 -238 310 -362 l44 -38 790 0 c903 1 831 -10 598 91
-65 28 -137 60 -160 70 -96 43 -133 58 -228 99 -277 117 -405 196 -435 271
-18 42 2 89 63 146 67 63 141 106 422 243 265 129 397 212 504 319 88 87 97
98 161 196 78 120 103 199 108 340 4 135 -9 209 -58 305 -56 111 -107 167
-336 366 -131 114 -209 191 -350 343 -97 104 -224 180 -362 215 -89 22 -323
21 -412 -3z m418 -483 l3 -158 147 0 c81 0 154 -5 162 -10 12 -8 16 -43 18
-193 3 -160 1 -187 -13 -201 -14 -13 -41 -16 -166 -16 l-149 0 0 -144 c0 -79
-3 -151 -6 -160 -5 -14 -33 -16 -204 -16 -171 0 -199 2 -204 16 -3 9 -6 81 -6
160 l0 144 -149 0 c-123 0 -152 3 -165 16 -13 13 -16 45 -16 192 0 97 5 184
10 192 7 12 40 16 165 18 l155 3 0 144 c0 79 3 151 6 159 6 14 31 16 208 14
l201 -3 3 -157z"/>
</g>
</svg>
